<mxfile host="65bd71144e">
    <diagram id="X7NL0PGJ2qer8Yx_7DJM" name="Page-1">
        <mxGraphModel dx="777" dy="680" grid="1" gridSize="10" guides="1" tooltips="1" connect="1" arrows="1" fold="1" page="1" pageScale="1" pageWidth="827" pageHeight="1169" math="0" shadow="0">
            <root>
                <mxCell id="0"/>
                <mxCell id="1" parent="0"/>
                <mxCell id="60" value="" style="strokeWidth=1;shadow=0;dashed=0;align=center;html=1;shape=mxgraph.mockup.containers.browserWindow;rSize=0;strokeColor=#666666;strokeColor2=#008cff;strokeColor3=#c4c4c4;mainText=,;recursiveResize=0;" vertex="1" parent="1">
                    <mxGeometry x="50" y="90" width="640" height="620" as="geometry"/>
                </mxCell>
                <mxCell id="61" value="Page 1" style="strokeWidth=1;shadow=0;dashed=0;align=center;html=1;shape=mxgraph.mockup.containers.anchor;fontSize=17;fontColor=#666666;align=left;" vertex="1" parent="60">
                    <mxGeometry x="60" y="12" width="110" height="26" as="geometry"/>
                </mxCell>
                <mxCell id="62" value="https://www.rkg-groupie/tracker.01F" style="strokeWidth=1;shadow=0;dashed=0;align=center;html=1;shape=mxgraph.mockup.containers.anchor;rSize=0;fontSize=17;fontColor=#666666;align=left;" vertex="1" parent="60">
                    <mxGeometry x="130" y="60" width="250" height="26" as="geometry"/>
                </mxCell>
                <mxCell id="297" value="" style="group" vertex="1" connectable="0" parent="60">
                    <mxGeometry x="4.9999999999999964" y="132" width="620.4200000000001" height="459" as="geometry"/>
                </mxCell>
                <mxCell id="217" value="" style="shape=rect;fillColor=#F6F6F6;strokeColor=none;" vertex="1" parent="297">
                    <mxGeometry x="406" width="178.58" height="40" as="geometry"/>
                </mxCell>
                <mxCell id="218" value="" style="html=1;strokeWidth=1;shadow=0;dashed=0;shape=mxgraph.ios7ui.marginRect;rx=3;ry=3;rectMargin=5;fillColor=#E4E4E4;strokeColor=none;" vertex="1" parent="217">
                    <mxGeometry width="178.58" height="40" as="geometry"/>
                </mxCell>
                <mxCell id="219" value="Search" style="shape=mxgraph.ios7.icons.looking_glass;strokeColor=#878789;fillColor=none;fontColor=#878789;labelPosition=right;verticalLabelPosition=middle;align=left;verticalAlign=middle;fontSize=6;fontStyle=0;spacingTop=2;sketch=0;" vertex="1" parent="217">
                    <mxGeometry x="0.5" y="0.5" width="16.5" height="16.5" relative="1" as="geometry">
                        <mxPoint x="-27" y="-10" as="offset"/>
                    </mxGeometry>
                </mxCell>
                <mxCell id="296" value="" style="group" vertex="1" connectable="0" parent="297">
                    <mxGeometry y="74" width="620.4200000000001" height="385" as="geometry"/>
                </mxCell>
                <mxCell id="64" value="" style="shape=mxgraph.mockup.containers.marginRect;rectMarginTop=10;strokeColor=#666666;strokeWidth=1;dashed=0;rounded=1;arcSize=5;recursiveResize=0;" vertex="1" parent="296">
                    <mxGeometry x="85" y="125" width="450" height="260" as="geometry"/>
                </mxCell>
                <mxCell id="65" value="INFO" style="shape=rect;strokeColor=none;fillColor=#008cff;strokeWidth=1;dashed=0;rounded=1;arcSize=20;fontColor=#ffffff;fontSize=17;spacing=2;spacingTop=-2;align=left;autosize=1;spacingLeft=4;resizeWidth=0;resizeHeight=0;perimeter=none;" vertex="1" parent="64">
                    <mxGeometry x="5" width="60" height="30" as="geometry"/>
                </mxCell>
                <mxCell id="300" value="" style="group" vertex="1" connectable="0" parent="64">
                    <mxGeometry x="20" y="20" width="400" height="220" as="geometry"/>
                </mxCell>
                <mxCell id="6" value="" style="verticalLabelPosition=bottom;shadow=0;dashed=0;align=center;html=1;verticalAlign=top;strokeWidth=1;shape=mxgraph.mockup.misc.map;" vertex="1" parent="300">
                    <mxGeometry x="295" y="150" width="90" height="70" as="geometry"/>
                </mxCell>
                <mxCell id="299" value="" style="group" vertex="1" connectable="0" parent="300">
                    <mxGeometry width="400" height="200" as="geometry"/>
                </mxCell>
                <mxCell id="66" value="" style="strokeWidth=1;shadow=0;dashed=0;align=center;html=1;shape=mxgraph.mockup.forms.rrect;rSize=5;strokeColor=#999999;fillColor=#ffffff;" vertex="1" parent="299">
                    <mxGeometry x="280" width="120" height="130" as="geometry"/>
                </mxCell>
                <mxCell id="67" value="October 2014" style="strokeWidth=1;shadow=0;dashed=0;align=center;html=1;shape=mxgraph.mockup.forms.anchor;fontColor=#999999;" vertex="1" parent="66">
                    <mxGeometry x="22.5" y="5.942857142857141" width="75" height="14.85714285714286" as="geometry"/>
                </mxCell>
                <mxCell id="68" value="&lt;" style="strokeWidth=1;shadow=0;dashed=0;align=center;html=1;shape=mxgraph.mockup.forms.rrect;rSize=4;strokeColor=#999999;fontColor=#008cff;fontSize=19;fontStyle=1;" vertex="1" parent="66">
                    <mxGeometry x="6" y="5.942857142857141" width="18.75" height="14.85714285714286" as="geometry"/>
                </mxCell>
                <mxCell id="69" value="&gt;" style="strokeWidth=1;shadow=0;dashed=0;align=center;html=1;shape=mxgraph.mockup.forms.rrect;rSize=4;strokeColor=#999999;fontColor=#008cff;fontSize=19;fontStyle=1;" vertex="1" parent="66">
                    <mxGeometry x="95.25" y="5.942857142857141" width="18.75" height="14.85714285714286" as="geometry"/>
                </mxCell>
                <mxCell id="70" value="Mo" style="strokeWidth=1;shadow=0;dashed=0;align=center;html=1;shape=mxgraph.mockup.forms.anchor;fontColor=#999999;" vertex="1" parent="66">
                    <mxGeometry x="7.5" y="20.8" width="15" height="14.85714285714286" as="geometry"/>
                </mxCell>
                <mxCell id="71" value="Tu" style="strokeWidth=1;shadow=0;dashed=0;align=center;html=1;shape=mxgraph.mockup.forms.anchor;fontColor=#999999;" vertex="1" parent="66">
                    <mxGeometry x="22.5" y="20.8" width="15" height="14.85714285714286" as="geometry"/>
                </mxCell>
                <mxCell id="72" value="We" style="strokeWidth=1;shadow=0;dashed=0;align=center;html=1;shape=mxgraph.mockup.forms.anchor;fontColor=#999999;" vertex="1" parent="66">
                    <mxGeometry x="37.5" y="20.8" width="15" height="14.85714285714286" as="geometry"/>
                </mxCell>
                <mxCell id="73" value="Th" style="strokeWidth=1;shadow=0;dashed=0;align=center;html=1;shape=mxgraph.mockup.forms.anchor;fontColor=#999999;" vertex="1" parent="66">
                    <mxGeometry x="52.50000000000001" y="20.8" width="15" height="14.85714285714286" as="geometry"/>
                </mxCell>
                <mxCell id="74" value="Fr" style="strokeWidth=1;shadow=0;dashed=0;align=center;html=1;shape=mxgraph.mockup.forms.anchor;fontColor=#999999;" vertex="1" parent="66">
                    <mxGeometry x="67.5" y="20.8" width="15" height="14.85714285714286" as="geometry"/>
                </mxCell>
                <mxCell id="75" value="Sa" style="strokeWidth=1;shadow=0;dashed=0;align=center;html=1;shape=mxgraph.mockup.forms.anchor;fontColor=#999999;" vertex="1" parent="66">
                    <mxGeometry x="82.5" y="20.8" width="15" height="14.85714285714286" as="geometry"/>
                </mxCell>
                <mxCell id="76" value="Su" style="strokeWidth=1;shadow=0;dashed=0;align=center;html=1;shape=mxgraph.mockup.forms.anchor;fontColor=#999999;" vertex="1" parent="66">
                    <mxGeometry x="97.50000000000001" y="20.8" width="15" height="14.85714285714286" as="geometry"/>
                </mxCell>
                <mxCell id="77" value="1" style="strokeWidth=1;shadow=0;dashed=0;align=center;html=1;shape=mxgraph.mockup.forms.rrect;rSize=0;strokeColor=#999999;fontColor=#999999;" vertex="1" parent="66">
                    <mxGeometry x="7.5" y="35.65714285714285" width="15" height="14.85714285714286" as="geometry"/>
                </mxCell>
                <mxCell id="78" value="2" style="strokeWidth=1;shadow=0;dashed=0;align=center;html=1;shape=mxgraph.mockup.forms.rrect;rSize=0;strokeColor=#999999;fontColor=#999999;" vertex="1" parent="66">
                    <mxGeometry x="22.5" y="35.65714285714285" width="15" height="14.85714285714286" as="geometry"/>
                </mxCell>
                <mxCell id="79" value="3" style="strokeWidth=1;shadow=0;dashed=0;align=center;html=1;shape=mxgraph.mockup.forms.rrect;rSize=0;strokeColor=#999999;fontColor=#999999;" vertex="1" parent="66">
                    <mxGeometry x="37.5" y="35.65714285714285" width="15" height="14.85714285714286" as="geometry"/>
                </mxCell>
                <mxCell id="80" value="4" style="strokeWidth=1;shadow=0;dashed=0;align=center;html=1;shape=mxgraph.mockup.forms.rrect;rSize=0;strokeColor=#999999;fontColor=#999999;" vertex="1" parent="66">
                    <mxGeometry x="52.50000000000001" y="35.65714285714285" width="15" height="14.85714285714286" as="geometry"/>
                </mxCell>
                <mxCell id="81" value="5" style="strokeWidth=1;shadow=0;dashed=0;align=center;html=1;shape=mxgraph.mockup.forms.rrect;rSize=0;strokeColor=#999999;fontColor=#999999;" vertex="1" parent="66">
                    <mxGeometry x="67.5" y="35.65714285714285" width="15" height="14.85714285714286" as="geometry"/>
                </mxCell>
                <mxCell id="82" value="6" style="strokeWidth=1;shadow=0;dashed=0;align=center;html=1;shape=mxgraph.mockup.forms.rrect;rSize=0;strokeColor=#999999;fontColor=#999999;" vertex="1" parent="66">
                    <mxGeometry x="82.5" y="35.65714285714285" width="15" height="14.85714285714286" as="geometry"/>
                </mxCell>
                <mxCell id="83" value="7" style="strokeWidth=1;shadow=0;dashed=0;align=center;html=1;shape=mxgraph.mockup.forms.rrect;rSize=0;strokeColor=#999999;fontColor=#999999;" vertex="1" parent="66">
                    <mxGeometry x="97.50000000000001" y="35.65714285714285" width="15" height="14.85714285714286" as="geometry"/>
                </mxCell>
                <mxCell id="84" value="8" style="strokeWidth=1;shadow=0;dashed=0;align=center;html=1;shape=mxgraph.mockup.forms.rrect;rSize=0;strokeColor=#999999;fontColor=#999999;" vertex="1" parent="66">
                    <mxGeometry x="7.5" y="50.51428571428572" width="15" height="14.85714285714286" as="geometry"/>
                </mxCell>
                <mxCell id="85" value="9" style="strokeWidth=1;shadow=0;dashed=0;align=center;html=1;shape=mxgraph.mockup.forms.rrect;rSize=0;strokeColor=#999999;fontColor=#999999;" vertex="1" parent="66">
                    <mxGeometry x="22.5" y="50.51428571428572" width="15" height="14.85714285714286" as="geometry"/>
                </mxCell>
                <mxCell id="86" value="10" style="strokeWidth=1;shadow=0;dashed=0;align=center;html=1;shape=mxgraph.mockup.forms.rrect;rSize=0;strokeColor=#999999;fontColor=#999999;" vertex="1" parent="66">
                    <mxGeometry x="37.5" y="50.51428571428572" width="15" height="14.85714285714286" as="geometry"/>
                </mxCell>
                <mxCell id="87" value="11" style="strokeWidth=1;shadow=0;dashed=0;align=center;html=1;shape=mxgraph.mockup.forms.rrect;rSize=0;strokeColor=#999999;fontColor=#999999;" vertex="1" parent="66">
                    <mxGeometry x="52.50000000000001" y="50.51428571428572" width="15" height="14.85714285714286" as="geometry"/>
                </mxCell>
                <mxCell id="88" value="12" style="strokeWidth=1;shadow=0;dashed=0;align=center;html=1;shape=mxgraph.mockup.forms.rrect;rSize=0;strokeColor=#999999;fontColor=#999999;" vertex="1" parent="66">
                    <mxGeometry x="67.5" y="50.51428571428572" width="15" height="14.85714285714286" as="geometry"/>
                </mxCell>
                <mxCell id="89" value="13" style="strokeWidth=1;shadow=0;dashed=0;align=center;html=1;shape=mxgraph.mockup.forms.rrect;rSize=0;strokeColor=#999999;fontColor=#999999;" vertex="1" parent="66">
                    <mxGeometry x="82.5" y="50.51428571428572" width="15" height="14.85714285714286" as="geometry"/>
                </mxCell>
                <mxCell id="90" value="14" style="strokeWidth=1;shadow=0;dashed=0;align=center;html=1;shape=mxgraph.mockup.forms.rrect;rSize=0;strokeColor=#999999;fontColor=#999999;" vertex="1" parent="66">
                    <mxGeometry x="97.50000000000001" y="50.51428571428572" width="15" height="14.85714285714286" as="geometry"/>
                </mxCell>
                <mxCell id="91" value="15" style="strokeWidth=1;shadow=0;dashed=0;align=center;html=1;shape=mxgraph.mockup.forms.rrect;rSize=0;strokeColor=#999999;fontColor=#999999;" vertex="1" parent="66">
                    <mxGeometry x="7.5" y="65.37142857142857" width="15" height="14.85714285714286" as="geometry"/>
                </mxCell>
                <mxCell id="92" value="16" style="strokeWidth=1;shadow=0;dashed=0;align=center;html=1;shape=mxgraph.mockup.forms.rrect;rSize=0;strokeColor=#999999;fontColor=#999999;" vertex="1" parent="66">
                    <mxGeometry x="22.5" y="65.37142857142857" width="15" height="14.85714285714286" as="geometry"/>
                </mxCell>
                <mxCell id="93" value="17" style="strokeWidth=1;shadow=0;dashed=0;align=center;html=1;shape=mxgraph.mockup.forms.rrect;rSize=0;strokeColor=#999999;fontColor=#999999;" vertex="1" parent="66">
                    <mxGeometry x="37.5" y="65.37142857142857" width="15" height="14.85714285714286" as="geometry"/>
                </mxCell>
                <mxCell id="94" value="18" style="strokeWidth=1;shadow=0;dashed=0;align=center;html=1;shape=mxgraph.mockup.forms.rrect;rSize=0;strokeColor=#999999;fontColor=#999999;" vertex="1" parent="66">
                    <mxGeometry x="52.50000000000001" y="65.37142857142857" width="15" height="14.85714285714286" as="geometry"/>
                </mxCell>
                <mxCell id="95" value="19" style="strokeWidth=1;shadow=0;dashed=0;align=center;html=1;shape=mxgraph.mockup.forms.rrect;rSize=0;strokeColor=#999999;fontColor=#999999;" vertex="1" parent="66">
                    <mxGeometry x="67.5" y="65.37142857142857" width="15" height="14.85714285714286" as="geometry"/>
                </mxCell>
                <mxCell id="96" value="20" style="strokeWidth=1;shadow=0;dashed=0;align=center;html=1;shape=mxgraph.mockup.forms.rrect;rSize=0;strokeColor=#999999;fontColor=#999999;" vertex="1" parent="66">
                    <mxGeometry x="82.5" y="65.37142857142857" width="15" height="14.85714285714286" as="geometry"/>
                </mxCell>
                <mxCell id="97" value="21" style="strokeWidth=1;shadow=0;dashed=0;align=center;html=1;shape=mxgraph.mockup.forms.rrect;rSize=0;strokeColor=#999999;fontColor=#999999;" vertex="1" parent="66">
                    <mxGeometry x="97.50000000000001" y="65.37142857142857" width="15" height="14.85714285714286" as="geometry"/>
                </mxCell>
                <mxCell id="98" value="22" style="strokeWidth=1;shadow=0;dashed=0;align=center;html=1;shape=mxgraph.mockup.forms.rrect;rSize=0;strokeColor=#999999;fontColor=#999999;" vertex="1" parent="66">
                    <mxGeometry x="7.5" y="80.22857142857141" width="15" height="14.85714285714286" as="geometry"/>
                </mxCell>
                <mxCell id="99" value="23" style="strokeWidth=1;shadow=0;dashed=0;align=center;html=1;shape=mxgraph.mockup.forms.rrect;rSize=0;strokeColor=#999999;fontColor=#999999;" vertex="1" parent="66">
                    <mxGeometry x="22.5" y="80.22857142857141" width="15" height="14.85714285714286" as="geometry"/>
                </mxCell>
                <mxCell id="100" value="25" style="strokeWidth=1;shadow=0;dashed=0;align=center;html=1;shape=mxgraph.mockup.forms.rrect;rSize=0;strokeColor=#999999;fontColor=#999999;" vertex="1" parent="66">
                    <mxGeometry x="52.50000000000001" y="80.22857142857141" width="15" height="14.85714285714286" as="geometry"/>
                </mxCell>
                <mxCell id="101" value="26" style="strokeWidth=1;shadow=0;dashed=0;align=center;html=1;shape=mxgraph.mockup.forms.rrect;rSize=0;strokeColor=#999999;fontColor=#999999;" vertex="1" parent="66">
                    <mxGeometry x="67.5" y="80.22857142857141" width="15" height="14.85714285714286" as="geometry"/>
                </mxCell>
                <mxCell id="102" value="27" style="strokeWidth=1;shadow=0;dashed=0;align=center;html=1;shape=mxgraph.mockup.forms.rrect;rSize=0;strokeColor=#999999;fontColor=#999999;" vertex="1" parent="66">
                    <mxGeometry x="82.5" y="80.22857142857141" width="15" height="14.85714285714286" as="geometry"/>
                </mxCell>
                <mxCell id="103" value="28" style="strokeWidth=1;shadow=0;dashed=0;align=center;html=1;shape=mxgraph.mockup.forms.rrect;rSize=0;strokeColor=#999999;fontColor=#999999;" vertex="1" parent="66">
                    <mxGeometry x="97.50000000000001" y="80.22857142857141" width="15" height="14.85714285714286" as="geometry"/>
                </mxCell>
                <mxCell id="104" value="29" style="strokeWidth=1;shadow=0;dashed=0;align=center;html=1;shape=mxgraph.mockup.forms.rrect;rSize=0;strokeColor=#999999;fontColor=#999999;" vertex="1" parent="66">
                    <mxGeometry x="7.5" y="95.08571428571426" width="15" height="14.85714285714286" as="geometry"/>
                </mxCell>
                <mxCell id="105" value="30" style="strokeWidth=1;shadow=0;dashed=0;align=center;html=1;shape=mxgraph.mockup.forms.rrect;rSize=0;strokeColor=#999999;fontColor=#999999;" vertex="1" parent="66">
                    <mxGeometry x="22.5" y="95.08571428571426" width="15" height="14.85714285714286" as="geometry"/>
                </mxCell>
                <mxCell id="106" value="31" style="strokeWidth=1;shadow=0;dashed=0;align=center;html=1;shape=mxgraph.mockup.forms.rrect;rSize=0;strokeColor=#999999;fontColor=#999999;" vertex="1" parent="66">
                    <mxGeometry x="37.5" y="95.08571428571426" width="15" height="14.85714285714286" as="geometry"/>
                </mxCell>
                <mxCell id="107" value="1" style="strokeWidth=1;shadow=0;dashed=0;align=center;html=1;shape=mxgraph.mockup.forms.rrect;rSize=0;strokeColor=#999999;fontColor=#999999;fillColor=#ddeeff;" vertex="1" parent="66">
                    <mxGeometry x="52.50000000000001" y="95.08571428571426" width="15" height="14.85714285714286" as="geometry"/>
                </mxCell>
                <mxCell id="108" value="2" style="strokeWidth=1;shadow=0;dashed=0;align=center;html=1;shape=mxgraph.mockup.forms.rrect;rSize=0;strokeColor=#999999;fontColor=#999999;fillColor=#ddeeff;" vertex="1" parent="66">
                    <mxGeometry x="67.5" y="95.08571428571426" width="15" height="14.85714285714286" as="geometry"/>
                </mxCell>
                <mxCell id="109" value="3" style="strokeWidth=1;shadow=0;dashed=0;align=center;html=1;shape=mxgraph.mockup.forms.rrect;rSize=0;strokeColor=#999999;fontColor=#999999;fillColor=#ddeeff;" vertex="1" parent="66">
                    <mxGeometry x="82.5" y="95.08571428571426" width="15" height="14.85714285714286" as="geometry"/>
                </mxCell>
                <mxCell id="110" value="4" style="strokeWidth=1;shadow=0;dashed=0;align=center;html=1;shape=mxgraph.mockup.forms.rrect;rSize=0;strokeColor=#999999;fontColor=#999999;fillColor=#ddeeff;" vertex="1" parent="66">
                    <mxGeometry x="97.50000000000001" y="95.08571428571426" width="15" height="14.85714285714286" as="geometry"/>
                </mxCell>
                <mxCell id="111" value="5" style="strokeWidth=1;shadow=0;dashed=0;align=center;html=1;shape=mxgraph.mockup.forms.rrect;rSize=0;strokeColor=#999999;fontColor=#999999;fillColor=#ddeeff;" vertex="1" parent="66">
                    <mxGeometry x="7.5" y="109.94285714285714" width="15" height="14.85714285714286" as="geometry"/>
                </mxCell>
                <mxCell id="112" value="6" style="strokeWidth=1;shadow=0;dashed=0;align=center;html=1;shape=mxgraph.mockup.forms.rrect;rSize=0;strokeColor=#999999;fontColor=#999999;fillColor=#ddeeff;" vertex="1" parent="66">
                    <mxGeometry x="22.5" y="109.94285714285714" width="15" height="14.85714285714286" as="geometry"/>
                </mxCell>
                <mxCell id="113" value="7" style="strokeWidth=1;shadow=0;dashed=0;align=center;html=1;shape=mxgraph.mockup.forms.rrect;rSize=0;strokeColor=#999999;fontColor=#999999;fillColor=#ddeeff;" vertex="1" parent="66">
                    <mxGeometry x="37.5" y="109.94285714285714" width="15" height="14.85714285714286" as="geometry"/>
                </mxCell>
                <mxCell id="114" value="8" style="strokeWidth=1;shadow=0;dashed=0;align=center;html=1;shape=mxgraph.mockup.forms.rrect;rSize=0;strokeColor=#999999;fontColor=#999999;fillColor=#ddeeff;" vertex="1" parent="66">
                    <mxGeometry x="52.50000000000001" y="109.94285714285714" width="15" height="14.85714285714286" as="geometry"/>
                </mxCell>
                <mxCell id="115" value="9" style="strokeWidth=1;shadow=0;dashed=0;align=center;html=1;shape=mxgraph.mockup.forms.rrect;rSize=0;strokeColor=#999999;fontColor=#999999;fillColor=#ddeeff;" vertex="1" parent="66">
                    <mxGeometry x="67.5" y="109.94285714285714" width="15" height="14.85714285714286" as="geometry"/>
                </mxCell>
                <mxCell id="116" value="10" style="strokeWidth=1;shadow=0;dashed=0;align=center;html=1;shape=mxgraph.mockup.forms.rrect;rSize=0;strokeColor=#999999;fontColor=#999999;fillColor=#ddeeff;" vertex="1" parent="66">
                    <mxGeometry x="82.5" y="109.94285714285714" width="15" height="14.85714285714286" as="geometry"/>
                </mxCell>
                <mxCell id="117" value="11" style="strokeWidth=1;shadow=0;dashed=0;align=center;html=1;shape=mxgraph.mockup.forms.rrect;rSize=0;strokeColor=#999999;fontColor=#999999;fillColor=#ddeeff;" vertex="1" parent="66">
                    <mxGeometry x="97.50000000000001" y="109.94285714285714" width="15" height="14.85714285714286" as="geometry"/>
                </mxCell>
                <mxCell id="118" value="24" style="strokeWidth=1;shadow=0;dashed=0;align=center;html=1;shape=mxgraph.mockup.forms.rrect;rSize=0;strokeColor=#ff0000;fontColor=#ffffff;strokeWidth=2;fillColor=#008cff;" vertex="1" parent="66">
                    <mxGeometry x="37.5" y="80.22857142857141" width="15" height="14.85714285714286" as="geometry"/>
                </mxCell>
                <mxCell id="298" value="" style="group" vertex="1" connectable="0" parent="299">
                    <mxGeometry y="18" width="170" height="182" as="geometry"/>
                </mxCell>
                <mxCell id="120" value="&lt;font style=&quot;font-size: 8px&quot;&gt;&lt;b&gt;Artist Name:&lt;br&gt;Creation Dat:&lt;br&gt;Members:&lt;br&gt;Event:&lt;br&gt;&lt;/b&gt;&lt;/font&gt;" style="strokeWidth=1;shadow=0;dashed=0;align=center;html=1;shape=mxgraph.mockup.text.bulletedList;textColor=#666666;mainText=,,,,;textSize=17;bulletStyle=none;strokeColor=none;fillColor=none;align=left;verticalAlign=top;fontSize=17;fontColor=#666666;" vertex="1" parent="298">
                    <mxGeometry width="145" height="92" as="geometry"/>
                </mxCell>
                <mxCell id="295" value="&lt;table cellpadding=&quot;4&quot; cellspacing=&quot;0&quot; border=&quot;1&quot; style=&quot;font-size: 8px; width: 100%; height: 100%;&quot;&gt;&lt;tbody style=&quot;font-size: 8px;&quot;&gt;&lt;tr style=&quot;font-size: 8px;&quot;&gt;&lt;th style=&quot;font-size: 8px;&quot;&gt;Consert Dates&lt;/th&gt;&lt;th style=&quot;font-size: 8px;&quot;&gt;Location&lt;/th&gt;&lt;/tr&gt;&lt;tr style=&quot;font-size: 8px;&quot;&gt;&lt;td style=&quot;text-align: left; font-size: 8px;&quot;&gt;&lt;br style=&quot;font-size: 8px;&quot;&gt;&lt;/td&gt;&lt;td style=&quot;text-align: left; font-size: 8px;&quot;&gt;&lt;/td&gt;&lt;/tr&gt;&lt;tr style=&quot;font-size: 8px;&quot;&gt;&lt;td style=&quot;text-align: left; font-size: 8px;&quot;&gt;&lt;br style=&quot;font-size: 8px;&quot;&gt;&lt;/td&gt;&lt;td style=&quot;text-align: left; font-size: 8px;&quot;&gt;&lt;br style=&quot;font-size: 8px;&quot;&gt;&lt;/td&gt;&lt;/tr&gt;&lt;/tbody&gt;&lt;/table&gt; " style="verticalAlign=top;align=center;overflow=fill;fontSize=8;fontFamily=Helvetica;html=1;fontStyle=0;dashed=1;strokeWidth=3;dashPattern=1 1;rounded=0;glass=0;sketch=0;fillColor=#f5f5f5;strokeColor=#666666;gradientColor=#b3b3b3;gradientDirection=west;" vertex="1" parent="298">
                    <mxGeometry y="104" width="170" height="78" as="geometry"/>
                </mxCell>
                <mxCell id="294" value="" style="group" vertex="1" connectable="0" parent="296">
                    <mxGeometry width="620.4200000000001" height="75" as="geometry"/>
                </mxCell>
                <mxCell id="215" value="" style="html=1;shadow=0;dashed=0;align=center;verticalAlign=middle;shape=mxgraph.arrows2.arrow;dy=0;dx=27;notch=23;rotation=-180;" vertex="1" parent="294">
                    <mxGeometry x="3.552713678800501e-15" y="16" width="31.84" height="47.5" as="geometry"/>
                </mxCell>
                <mxCell id="292" value="" style="html=1;shadow=0;dashed=0;align=center;verticalAlign=middle;shape=mxgraph.arrows2.arrow;dy=0;dx=27;notch=23;rotation=0;" vertex="1" parent="294">
                    <mxGeometry x="588.58" y="16" width="31.84" height="47.5" as="geometry"/>
                </mxCell>
                <mxCell id="293" value="" style="group" vertex="1" connectable="0" parent="294">
                    <mxGeometry x="35" width="550" height="75" as="geometry"/>
                </mxCell>
                <mxCell id="122" value="" style="verticalLabelPosition=bottom;shadow=0;dashed=0;align=center;html=1;verticalAlign=top;strokeWidth=1;shape=mxgraph.mockup.containers.userFemale;strokeColor=#666666;strokeColor2=#008cff;" vertex="1" parent="293">
                    <mxGeometry x="482.0488260072036" width="67.95117399279647" height="75" as="geometry"/>
                </mxCell>
                <mxCell id="188" value="" style="verticalLabelPosition=bottom;shadow=0;dashed=0;align=center;html=1;verticalAlign=top;strokeWidth=1;shape=mxgraph.mockup.containers.userFemale;strokeColor=#666666;strokeColor2=#008cff;" vertex="1" parent="293">
                    <mxGeometry x="89.53526484242599" width="67.95117399279647" height="75" as="geometry"/>
                </mxCell>
                <mxCell id="187" value="" style="verticalLabelPosition=bottom;shadow=0;dashed=0;align=center;html=1;verticalAlign=top;strokeWidth=1;shape=mxgraph.mockup.containers.userFemale;strokeColor=#666666;strokeColor2=#008cff;" vertex="1" parent="293">
                    <mxGeometry x="325.35981418442606" width="67.95117399279647" height="75" as="geometry"/>
                </mxCell>
                <mxCell id="201" value="" style="verticalLabelPosition=bottom;shadow=0;dashed=0;align=center;html=1;verticalAlign=top;strokeWidth=1;shape=mxgraph.mockup.containers.userFemale;strokeColor=#666666;strokeColor2=#008cff;" vertex="1" parent="293">
                    <mxGeometry width="67.95117399279647" height="75" as="geometry"/>
                </mxCell>
                <mxCell id="204" value="" style="verticalLabelPosition=bottom;shadow=0;dashed=0;align=center;html=1;verticalAlign=top;strokeWidth=1;shape=mxgraph.mockup.containers.userFemale;strokeColor=#666666;strokeColor2=#008cff;" vertex="1" parent="293">
                    <mxGeometry x="247.0161076986138" width="67.95117399279647" height="75" as="geometry"/>
                </mxCell>
                <mxCell id="209" value="" style="verticalLabelPosition=bottom;shadow=0;dashed=0;align=center;html=1;verticalAlign=top;strokeWidth=1;shape=mxgraph.mockup.containers.userMale;strokeColor=#666666;strokeColor2=#008cff;" vertex="1" parent="293">
                    <mxGeometry x="167.87297563641545" width="67.95117399279647" height="75" as="geometry"/>
                </mxCell>
                <mxCell id="210" value="" style="verticalLabelPosition=bottom;shadow=0;dashed=0;align=center;html=1;verticalAlign=top;strokeWidth=1;shape=mxgraph.mockup.containers.userMale;strokeColor=#666666;strokeColor2=#008cff;" vertex="1" parent="293">
                    <mxGeometry x="402.90409509385256" width="67.95117399279647" height="75" as="geometry"/>
                </mxCell>
            </root>
        </mxGraphModel>
    </diagram>
</mxfile>